<?xml version="1.0" standalone="no"?>
<!DOCTYPE svg PUBLIC "-//W3C//DTD SVG 20010904//EN"
 "http://www.w3.org/TR/2001/REC-SVG-20010904/DTD/svg10.dtd">
<svg version="1.0" xmlns="http://www.w3.org/2000/svg"
 width="1086.000000pt" height="1086.000000pt" viewBox="0 0 1086.000000 1086.000000"
 preserveAspectRatio="xMidYMid meet">
<metadata>
Created by potrace 1.13, written by Peter Selinger 2001-2015
</metadata>
<g transform="translate(0.000000,1086.000000) scale(0.100000,-0.100000)"
fill="#000000" stroke="none">
<path d="M5394 10061 c-259 -5 -335 -9 -347 -20 -17 -13 -137 -12 -348 5 -81
6 -82 6 -257 -54 -194 -68 -443 -236 -837 -568 -117 -98 -159 -145 -205 -231
-18 -34 -82 -121 -142 -195 -127 -156 -181 -235 -233 -338 -45 -90 -235 -561
-259 -645 -54 -182 -126 -376 -183 -495 -35 -74 -69 -155 -74 -180 -25 -111
-31 -214 -19 -329 7 -64 16 -174 20 -246 5 -79 19 -171 34 -235 28 -116 36
-297 15 -344 -9 -19 -9 -41 0 -88 7 -35 15 -80 19 -102 9 -49 43 -66 70 -36
68 79 98 93 143 66 28 -17 29 -17 76 26 65 59 70 65 94 130 12 31 31 65 43 76
11 11 95 57 186 103 91 45 177 90 192 100 14 11 33 19 42 19 9 0 29 27 50 68
19 37 48 85 66 107 38 48 61 92 84 162 15 45 26 58 86 101 63 47 103 91 188
211 64 89 134 151 217 192 44 22 98 53 120 69 l40 30 65 -24 c70 -27 74 -35
34 -77 -14 -14 -27 -42 -30 -61 -5 -28 -14 -40 -44 -57 -45 -25 -53 -42 -39
-79 25 -64 54 -73 162 -48 45 11 82 12 175 4 64 -5 167 -12 228 -15 l111 -5
31 38 c25 30 32 34 37 22 4 -9 2 -26 -4 -37 -17 -32 -51 -217 -51 -280 0 -63
18 -91 57 -91 29 0 101 60 216 179 94 98 98 101 120 86 27 -19 69 -19 105 -1
15 7 48 16 73 20 54 8 59 2 59 -70 0 -51 30 -118 60 -134 25 -14 85 15 133 65
40 41 45 42 49 14 2 -12 15 -31 31 -43 26 -19 31 -19 125 -7 53 7 126 17 162
21 36 5 126 18 200 30 330 51 597 31 774 -57 58 -29 74 -26 68 15 -4 30 -3 30
52 37 31 4 66 5 79 1 34 -8 231 -158 363 -276 118 -106 144 -146 158 -236 l6
-41 -112 -6 c-133 -8 -158 -21 -118 -62 14 -13 70 -48 125 -78 66 -35 101 -60
104 -73 5 -30 18 -41 105 -92 49 -28 109 -75 152 -119 41 -42 80 -73 92 -73
14 0 26 -16 45 -58 19 -42 76 -197 77 -208 0 -1 -9 -11 -19 -23 -15 -17 -18
-29 -11 -44 43 -111 91 -195 118 -204 9 -3 38 -21 63 -40 56 -40 88 -41 144
-8 47 27 138 141 179 223 15 28 33 52 41 52 8 0 15 8 15 17 0 9 9 42 19 72 14
41 21 94 24 196 3 103 9 150 22 180 25 57 44 176 45 274 0 63 8 111 30 191
l31 106 -11 350 c-23 751 -53 903 -270 1349 -107 219 -112 227 -315 465 -388
454 -699 796 -788 866 -89 70 -116 83 -252 128 -60 19 -186 61 -279 91 -92 31
-187 60 -210 66 -89 22 -174 41 -246 54 -165 30 -254 57 -340 100 -28 14 -76
32 -108 39 -73 18 -362 24 -798 17z"/>
<path d="M3561 1166 c-7 -8 -35 -17 -64 -21 -53 -8 -165 -35 -227 -55 -68 -23
-132 -54 -370 -177 -88 -46 -209 -99 -280 -123 -247 -83 -367 -130 -504 -195
-76 -36 -172 -80 -214 -96 -101 -40 -148 -74 -273 -195 -135 -131 -320 -251
-410 -268 -22 -4 -36 -12 -36 -21 0 -22 1972 -23 1980 0 3 8 -5 58 -18 112
-14 54 -25 121 -25 148 0 28 -7 77 -15 110 -21 88 -20 268 3 330 30 84 58 128
119 186 66 63 132 106 213 137 30 11 69 28 87 37 36 18 83 69 83 91 0 18 -34
18 -49 0z"/>
<path d="M8231 413 c0 -5 12 -18 27 -30 162 -133 231 -217 257 -311 l19 -72
242 0 c237 0 243 1 249 21 4 13 0 28 -12 41 -28 33 -137 100 -263 163 -63 32
-134 71 -157 87 -23 16 -72 42 -109 58 -56 26 -78 30 -150 30 -49 0 -84 4 -84
10 0 6 -4 10 -10 10 -5 0 -10 -3 -9 -7z"/>
</g>
</svg>
